{"title":"Villmark(Dark Woods)[2003]DVDRIP[Nor]","uid":14416096,"size":1434459790,"categoryP":"video","categoryS":"movies","magnet":"?xt=urn:btih:93838001a3505dad765ec2304bc519c6f244ad3c&amp;dn=Villmark%28Dark+Woods%29%5B2003%5DDVDRIP%5BNor%5D&amp;tr=udp%3A%2F%2Ftracker.leechers-paradise.org%3A6969&amp;tr=udp%3A%2F%2Fzer0day.ch%3A1337&amp;tr=udp%3A%2F%2Fopen.demonii.com%3A1337&amp;tr=udp%3A%2F%2Ftracker.coppersurfer.tk%3A6969&amp;tr=udp%3A%2F%2Fexodus.desync.com%3A6969","seeders":2,"leechers":0,"uploader":"Fanchig","files":2,"time":1461495264,"description":"The crew of the TV show &quot;Real TV&quot; with controlling boss Gunnar on the front line will soon begin production of a reality show for which participants are selected to survive in the wilderness.\r\nTo test his new employees, Gunnar takes them to a remote log cabin. Soon the team experiences some escalating incidents which lead to paranoia, accusations and mistrust.\r\n\r\nFormat : Matroska\r\nFormat version : Version 4 / Version 2\r\nFile size : 1.34 GiB\r\nDuration : 1h 21mn\r\nOverall bit rate : 2 356 Kbps\r\nEncoded date : UTC 2013-12-17 23:18:54\r\nWriting application : mkvmerge v6.6.0 ('The Edge Of The In Between') built on Dec 1 2013 17:55:00\r\nWriting library : libebml v1.3.0 + libmatroska v1.4.1\r\n\r\nVideo\r\nID : 1\r\nFormat : AVC\r\nFormat/Info : Advanced Video Codec\r\nFormat profile :   \r\nFormat settings, CABAC : Yes\r\nFormat settings, ReFrames : 2 frames\r\nCodec ID : V_MPEG4/ISO/AVC\r\nDuration : 1h 21mn\r\nBit rate : 1 861 Kbps\r\nWidth : 712 pixels\r\nHeight : 528 pixels\r\nDisplay aspect ratio : 1.917\r\nOriginal display aspect ratio : 1.918\r\nFrame rate mode : Constant\r\nFrame rate : 25.000 fps\r\nColor space : YUV\r\nChroma subsampling : 4:2:0\r\nBit depth : 8 bits\r\nScan type : Progressive\r\nBits/(Pixel*Frame) : 0.198\r\nStream size : 1.06 GiB (79%)\r\nWriting library : x264 core 94\r\nEncoding settings : cabac=1 / ref=2 / deblock=1:0:0 / analyse=0x1:0x111 / me=hex / subme=6 / psy=1 / psy_rd=1.00:0.00 / mixed_ref=0 / me_range=16 / chroma_me=1 / trellis=0 / 8x8dct=0 / cqm=0 / deadzone=21,11 / fast_pskip=1 / chroma_qp_offset=-2 / threads=6 / sliced_threads=0 / nr=0 / decimate=1 / interlaced=0 / constrained_intra=0 / bframes=2 / b_pyramid=0 / b_adapt=1 / b_bias=0 / direct=1 / wpredb=0 / wpredp=2 / keyint=250 / keyint_min=25 / scenecut=40 / intra_refresh=0 / rc_lookahead=40 / rc=crf / mbtree=1 / crf=19.0 / qcomp=0.60 / qpmin=10 / qpmax=51 / qpstep=4 / ip_ratio=1.40 / aq=1:1.00\r\nDefault : Yes\r\nForced : No\r\nColor primaries : BT.601 NTSC\r\nTransfer characteristics : BT.709\r\nMatrix coefficients : BT.601\r\n\r\nAudio\r\nID : 2\r\nFormat : AC-3\r\nFormat/Info : Audio Coding 3\r\nMode extension : CM (complete main)\r\nFormat settings, Endianness : Big\r\nCodec ID : A_AC3\r\nDuration : 1h 21mn\r\nBit rate mode : Constant\r\nBit rate : 448 Kbps\r\nChannel(s) : 6 channels\r\nChannel positions : Front: L C R, Side: L R, LFE\r\nSampling rate : 48.0 KHz\r\nBit depth : 16 bits\r\nCompression mode : Lossy\r\nStream size : 260 MiB (19%)\r\nLanguage : Norwegian\r\nDefault : Yes\r\nForced : No\r\n\r\nText #1\r\nID : 3\r\nFormat : UTF-8\r\nCodec ID : S_TEXT/UTF8\r\nCodec ID/Info : UTF-8 Plain Text\r\nLanguage : French\r\nDefault : Yes\r\nForced : No\r\n\r\nText #2\r\nID : 4\r\nFormat : VobSub\r\nMuxing mode : zlib\r\nCodec ID : S_VOBSUB\r\nCodec ID/Info : The same subtitle format used on DVDs\r\nLanguage : English\r\nDefault : No\r\nForced : No\r\n\r\nMenu\r\n00:00:00.000 : en:Chapter 1\r\n00:05:37.200 : en:Chapter 2\r\n00:20:36.080 : en:Chapter 3\r\n00:26:58.280 : en:Chapter 4\r\n00:38:57.160 : en:Chapter 5\r\n00:48:44.640 : en:Chapter 6\r\n01:04:50.720 : en:Chapter 7\r\n01:16:50.200 : en:Chapter 8\r\n01:19:10.000 : en:Chapter 9","torrent":{"xt":"urn:btih:93838001a3505dad765ec2304bc519c6f244ad3c","amp;dn":"Villmark%28Dark+Woods%29%5B2003%5DDVDRIP%5BNor%5D","amp;tr":["udp%3A%2F%2Ftracker.leechers-paradise.org%3A6969","udp%3A%2F%2Fzer0day.ch%3A1337","udp%3A%2F%2Fopen.demonii.com%3A1337","udp%3A%2F%2Ftracker.coppersurfer.tk%3A6969","udp%3A%2F%2Fexodus.desync.com%3A6969"],"infoHash":"93838001a3505dad765ec2304bc519c6f244ad3c","infoHashBuffer":{"type":"Buffer","data":[147,131,128,1,163,80,93,173,118,94,194,48,75,197,25,198,242,68,173,60]},"announce":[],"urlList":[]}}